<?xml version="1.0" encoding="UTF-8" standalone="no"?>
<svg
   xmlns:dc="http://purl.org/dc/elements/1.1/"
   xmlns:cc="http://creativecommons.org/ns#"
   xmlns:rdf="http://www.w3.org/1999/02/22-rdf-syntax-ns#"
   xmlns:svg="http://www.w3.org/2000/svg"
   xmlns="http://www.w3.org/2000/svg"
   xmlns:sodipodi="http://sodipodi.sourceforge.net/DTD/sodipodi-0.dtd"
   xmlns:inkscape="http://www.inkscape.org/namespaces/inkscape"
   version="1.1"
   width="24"
   height="24"
   viewBox="0 0 24 24"
   id="svg4"
   sodipodi:docname="baby-face-outline.svg"
   inkscape:version="1.0.2 (e86c870879, 2021-01-15)">
  <metadata
     id="metadata10">
    <rdf:RDF>
      <cc:Work
         rdf:about="">
        <dc:format>image/svg+xml</dc:format>
        <dc:type
           rdf:resource="http://purl.org/dc/dcmitype/StillImage" />
      </cc:Work>
    </rdf:RDF>
  </metadata>
  <defs
     id="defs8" />
  <sodipodi:namedview
     pagecolor="#ffffff"
     bordercolor="#666666"
     borderopacity="1"
     objecttolerance="10"
     gridtolerance="10"
     guidetolerance="10"
     inkscape:pageopacity="0"
     inkscape:pageshadow="2"
     inkscape:window-width="1280"
     inkscape:window-height="705"
     id="namedview6"
     showgrid="false"
     inkscape:zoom="15.727192"
     inkscape:cx="-14.26707"
     inkscape:cy="11.431428"
     inkscape:window-x="-8"
     inkscape:window-y="-8"
     inkscape:window-maximized="1"
     inkscape:current-layer="svg4" />
  <path
     d="M14.5,9.25A1.25,1.25 0 0,1 15.75,10.5A1.25,1.25 0 0,1 14.5,11.75A1.25,1.25 0 0,1 13.25,10.5A1.25,1.25 0 0,1 14.5,9.25M9.5,9.25A1.25,1.25 0 0,1 10.75,10.5A1.25,1.25 0 0,1 9.5,11.75A1.25,1.25 0 0,1 8.25,10.5A1.25,1.25 0 0,1 9.5,9.25M7.5,14H16.5C15.74,15.77 14,17 12,17C10,17 8.26,15.77 7.5,14M1,12C1,10.19 2.2,8.66 3.86,8.17C5.29,5.11 8.4,3 12,3C15.6,3 18.71,5.11 20.15,8.17C21.8,8.66 23,10.19 23,12C23,13.81 21.8,15.34 20.15,15.83C18.71,18.89 15.6,21 12,21C8.4,21 5.29,18.89 3.86,15.83C2.2,15.34 1,13.81 1,12M12,5C8.82,5 6.14,7.12 5.28,10H5A2,2 0 0,0 3,12A2,2 0 0,0 5,14H5.28C6.14,16.88 8.82,19 12,19C15.18,19 17.86,16.88 18.72,14H19A2,2 0 0,0 21,12A2,2 0 0,0 19,10H18.72C17.86,7.12 15.18,5 12,5Z"
     id="path2" />
  <rect
     style="fill:#ffffff;fill-opacity:1;stroke:none;stroke-width:15.3637;stroke-linecap:round;stroke-linejoin:round;stroke-miterlimit:4;stroke-dasharray:none;paint-order:fill markers stroke;stop-color:#000000"
     id="rect841"
     width="20.308462"
     height="18.098017"
     x="-24.045446"
     y="2.5635397"
     ry="1.4624352"
     rx="1.4624352"
     inkscape:export-xdpi="2363.5469"
     inkscape:export-ydpi="2363.5469" />
  <path
     d="m -12.055959,9.5937669 a 0.91762837,0.91762837 0 0 1 0.917628,0.9176281 0.91762837,0.91762837 0 0 1 -0.917628,0.917628 0.91762837,0.91762837 0 0 1 -0.917628,-0.917628 0.91762837,0.91762837 0 0 1 0.917628,-0.9176281 m -3.670514,0 a 0.91762837,0.91762837 0 0 1 0.917629,0.9176281 0.91762837,0.91762837 0 0 1 -0.917629,0.917628 0.91762837,0.91762837 0 0 1 -0.917628,-0.917628 0.91762837,0.91762837 0 0 1 0.917628,-0.9176281 m -1.468205,3.4869871 h 6.606924 c -0.557918,1.299362 -1.835256,2.202308 -3.303462,2.202308 -1.468205,0 -2.745544,-0.902946 -3.303462,-2.202308 m -4.771668,-1.468205 c 0,-1.328726 0.880924,-2.4519031 2.099534,-2.8116131 1.049767,-2.2463554 3.332826,-3.7953123 5.975596,-3.7953123 2.64277,0 4.9258294,1.5489569 5.9829373,3.7953123 1.2112694,0.35971 2.0921927,1.4828871 2.0921927,2.8116131 0,1.328726 -0.8809233,2.451903 -2.0921927,2.811613 -1.0571079,2.246354 -3.3401673,3.795311 -5.9829373,3.795311 -2.64277,0 -4.925829,-1.548957 -5.975596,-3.795311 -1.21861,-0.35971 -2.099534,-1.482887 -2.099534,-2.811613 m 8.07513,-5.1387198 c -2.334447,0 -4.301842,1.5562982 -4.93317,3.6705148 h -0.205549 a 1.4682054,1.4682054 0 0 0 -1.468205,1.468205 1.4682054,1.4682054 0 0 0 1.468205,1.468205 h 0.205549 c 0.631328,2.114216 2.598723,3.670514 4.93317,3.670514 2.334447,0 4.3018421,-1.556298 4.9331704,-3.670514 h 0.2055488 a 1.4682054,1.4682054 0 0 0 1.4682054,-1.468205 1.4682054,1.4682054 0 0 0 -1.4682054,-1.468205 H -8.9580456 C -9.5893739,8.0301274 -11.556769,6.4738292 -13.891216,6.4738292 Z"
     id="path2-4"
     style="stroke-width:0.734103"
     inkscape:export-xdpi="2363.5469"
     inkscape:export-ydpi="2363.5469" />
</svg>
